<?xml version="1.0" encoding="UTF-8"?>
<svg width="66px" height="66px" viewBox="0 0 66 66" version="1.1" xmlns="http://www.w3.org/2000/svg" xmlns:xlink="http://www.w3.org/1999/xlink">
    <!-- Generator: Sketch 47.1 (45422) - http://www.bohemiancoding.com/sketch -->
    <title>user-icon</title>
    <desc>Created with Sketch.</desc>
    <defs></defs>
    <g id="Page-1" stroke="none" stroke-width="1" fill="none" fill-rule="evenodd">
        <g id="user-icon" fill-rule="nonzero" fill="#32343C">
            <path d="M33,0.9 C15.3,0.9 0.9,15.3 0.9,33 C0.9,50.7 15.3,65.1 33,65.1 C50.7,65.1 65.1,50.7 65.1,33 C65.1,15.3 50.7,0.9 33,0.9 Z M50.1,53 L50.1,52.2 C50.1,43.4 42.5,36.3 33,36.3 C23.5,36.3 16,43.5 16,52.3 L16,53.1 C10.3,48.3 6.6,41.1 6.6,33 C6.6,18.5 18.4,6.6 33,6.6 C47.5,6.6 59.4,18.4 59.4,33 C59.4,41 55.8,48.2 50.1,53 Z" id="Shape"></path>
            <path d="M33,12.7 C28.1,12.7 24.7,16.4 24.7,21.6 C24.7,28.6 27.9,33 33,33 C38.1,33 41.3,28.6 41.3,21.6 C41.4,16.4 38,12.7 33,12.7 Z" id="Shape"></path>
        </g>
    </g>
</svg>