<svg xmlns="http://www.w3.org/2000/svg" width="118" height="36" viewBox="0 0 118 36">
    <g fill="#FFF" fill-rule="evenodd">
        <path d="M18 36c9.941 0 18-8.059 18-18H18V0C8.059 0 0 8.059 0 18s8.059 18 18 18zm0-4.5c-7.456 0-13.5-6.044-13.5-13.5S10.544 4.5 18 4.5 31.5 10.544 31.5 18 25.456 31.5 18 31.5zM27 18a9 9 0 0 0-9-9v9h9zm-9 4.5a4.5 4.5 0 1 0 0-9 4.5 4.5 0 0 0 0 9zM56.157 19.874l3.04.616c-.196 1.94-.899 3.51-2.108 4.71-1.21 1.2-2.771 1.8-4.684 1.8-2.174 0-3.952-.764-5.333-2.293C45.691 23.178 45 20.893 45 17.852c0-2.827.723-5.01 2.17-6.547S50.354 9 52.38 9c1.783 0 3.286.563 4.513 1.689 1.226 1.126 1.945 2.61 2.157 4.45l-2.991.47c-.425-2.614-1.643-3.921-3.654-3.921-1.258 0-2.309.51-3.15 1.528-.843 1.02-1.263 2.581-1.263 4.685 0 2.154.412 3.76 1.238 4.82.825 1.061 1.884 1.591 3.175 1.591 2.142 0 3.392-1.48 3.752-4.438zM67.19 24.46c.965 0 1.745-.382 2.342-1.146.597-.765.895-1.837.895-3.218 0-1.38-.298-2.454-.895-3.218-.597-.764-1.377-1.146-2.342-1.146-.98 0-1.77.378-2.366 1.134-.597.756-.895 1.833-.895 3.23 0 1.414.298 2.494.895 3.242.597.748 1.385 1.122 2.366 1.122zm0 2.54c-1.749 0-3.192-.608-4.328-1.825-1.136-1.216-1.704-2.91-1.704-5.08 0-2.136.585-3.821 1.753-5.054 1.17-1.233 2.595-1.85 4.28-1.85 1.683 0 3.101.617 4.254 1.85 1.152 1.233 1.728 2.918 1.728 5.055 0 2.17-.56 3.863-1.68 5.08C70.375 26.391 68.94 27 67.192 27zm8.803-.37V13.562h2.648v1.38h.05a3.01 3.01 0 0 1 1.127-1.183 2.987 2.987 0 0 1 1.57-.444c.376 0 .76.082 1.152.247l-.441 2.737c-.474-.132-.818-.198-1.03-.198-1.52 0-2.28 1.085-2.28 3.255v7.274h-2.796zm17.508-4.34l2.01 1.652C94.255 25.981 92.457 27 90.119 27c-1.798 0-3.265-.629-4.401-1.886-1.137-1.258-1.705-2.93-1.705-5.018 0-2.088.564-3.76 1.692-5.018 1.128-1.257 2.559-1.886 4.291-1.886 1.733 0 3.151.624 4.255 1.874 1.103 1.25 1.655 2.926 1.655 5.03v.838h-9.073c.033 1.085.331 1.952.895 2.602.564.649 1.345.974 2.342.974.474 0 .9-.066 1.275-.198.376-.131.707-.328.993-.591.286-.263.503-.494.65-.69.147-.198.319-.445.515-.74zm-6.645-3.476h6.326c-.049-.92-.343-1.673-.883-2.256-.54-.584-1.307-.876-2.305-.876-.931 0-1.675.313-2.23.937a3.52 3.52 0 0 0-.908 2.195zM98.97 26.63V9.37h7.062c1.52 0 2.738.44 3.654 1.319.915.88 1.373 1.969 1.373 3.267 0 1.463-.662 2.573-1.986 3.329v.05c.719.328 1.336.825 1.85 1.491.516.666.773 1.508.773 2.527 0 3.518-2.1 5.277-6.302 5.277H98.97zm2.893-10.183h3.777c.817 0 1.446-.185 1.888-.555.441-.37.662-.908.662-1.615 0-.724-.225-1.274-.675-1.652-.45-.378-1.083-.567-1.9-.567h-3.752v4.389zm0 7.495h3.066c.506 0 .92-.008 1.238-.024a5.185 5.185 0 0 0 1.042-.173c.376-.098.666-.238.87-.419.205-.18.38-.436.528-.764.147-.33.22-.732.22-1.209 0-1.002-.314-1.668-.944-1.997-.63-.329-1.606-.493-2.93-.493h-3.09v5.08zm13.144 2.688V9.37h2.893v17.26h-2.893z"/>
    </g>
</svg>
